<svg id="visual" viewBox="0 0 900 600" width="900" height="600" xmlns="http://www.w3.org/2000/svg" xmlns:xlink="http://www.w3.org/1999/xlink" version="1.1"><rect x="0" y="0" width="900" height="600" fill="#001220"></rect><path d="M0 391L21.5 385C43 379 86 367 128.8 370C171.7 373 214.3 391 257.2 405.8C300 420.7 343 432.3 385.8 424C428.7 415.7 471.3 387.3 514.2 385.2C557 383 600 407 642.8 416C685.7 425 728.3 419 771.2 418C814 417 857 421 878.5 423L900 425L900 601L878.5 601C857 601 814 601 771.2 601C728.3 601 685.7 601 642.8 601C600 601 557 601 514.2 601C471.3 601 428.7 601 385.8 601C343 601 300 601 257.2 601C214.3 601 171.7 601 128.8 601C86 601 43 601 21.5 601L0 601Z" fill="#fa7268"></path><path d="M0 394L21.5 402C43 410 86 426 128.8 438.5C171.7 451 214.3 460 257.2 466.2C300 472.3 343 475.7 385.8 464.7C428.7 453.7 471.3 428.3 514.2 424.2C557 420 600 437 642.8 447.8C685.7 458.7 728.3 463.3 771.2 462.7C814 462 857 456 878.5 453L900 450L900 601L878.5 601C857 601 814 601 771.2 601C728.3 601 685.7 601 642.8 601C600 601 557 601 514.2 601C471.3 601 428.7 601 385.8 601C343 601 300 601 257.2 601C214.3 601 171.7 601 128.8 601C86 601 43 601 21.5 601L0 601Z" fill="#ef5f67"></path><path d="M0 471L21.5 466C43 461 86 451 128.8 448.5C171.7 446 214.3 451 257.2 461.7C300 472.3 343 488.7 385.8 494.8C428.7 501 471.3 497 514.2 497.3C557 497.7 600 502.3 642.8 498.5C685.7 494.7 728.3 482.3 771.2 481.3C814 480.3 857 490.7 878.5 495.8L900 501L900 601L878.5 601C857 601 814 601 771.2 601C728.3 601 685.7 601 642.8 601C600 601 557 601 514.2 601C471.3 601 428.7 601 385.8 601C343 601 300 601 257.2 601C214.3 601 171.7 601 128.8 601C86 601 43 601 21.5 601L0 601Z" fill="#e34c67"></path><path d="M0 529L21.5 526.8C43 524.7 86 520.3 128.8 515.7C171.7 511 214.3 506 257.2 502.2C300 498.3 343 495.7 385.8 500C428.7 504.3 471.3 515.7 514.2 516.3C557 517 600 507 642.8 506.5C685.7 506 728.3 515 771.2 519.7C814 524.3 857 524.7 878.5 524.8L900 525L900 601L878.5 601C857 601 814 601 771.2 601C728.3 601 685.7 601 642.8 601C600 601 557 601 514.2 601C471.3 601 428.7 601 385.8 601C343 601 300 601 257.2 601C214.3 601 171.7 601 128.8 601C86 601 43 601 21.5 601L0 601Z" fill="#d53867"></path><path d="M0 549L21.5 548.7C43 548.3 86 547.7 128.8 548C171.7 548.3 214.3 549.7 257.2 546.3C300 543 343 535 385.8 532C428.7 529 471.3 531 514.2 532.2C557 533.3 600 533.7 642.8 536.7C685.7 539.7 728.3 545.3 771.2 549.7C814 554 857 557 878.5 558.5L900 560L900 601L878.5 601C857 601 814 601 771.2 601C728.3 601 685.7 601 642.8 601C600 601 557 601 514.2 601C471.3 601 428.7 601 385.8 601C343 601 300 601 257.2 601C214.3 601 171.7 601 128.8 601C86 601 43 601 21.5 601L0 601Z" fill="#c62368"></path></svg>